<svg xmlns="http://www.w3.org/2000/svg" viewBox="0 0 640 360" width="640" height="360">
  <defs>
    <linearGradient id="bg" x1="0%" y1="0%" x2="100%" y2="100%">
      <stop offset="0%" stop-color="#050f0a"/>
      <stop offset="100%" stop-color="#0a1f14"/>
    </linearGradient>
    <linearGradient id="accent" x1="0%" y1="0%" x2="100%" y2="0%">
      <stop offset="0%" stop-color="#046A38"/>
      <stop offset="100%" stop-color="#FF671F"/>
    </linearGradient>
    <radialGradient id="glow" cx="70%" cy="40%" r="50%">
      <stop offset="0%" stop-color="#046A38" stop-opacity="0.25"/>
      <stop offset="100%" stop-color="#046A38" stop-opacity="0"/>
    </radialGradient>
  </defs>
  <rect width="640" height="360" fill="url(#bg)"/>
  <rect width="640" height="360" fill="url(#glow)"/>
  <g stroke="#046A38" stroke-opacity="0.08" stroke-width="1">
    <line x1="0" y1="60" x2="640" y2="60"/><line x1="0" y1="120" x2="640" y2="120"/><line x1="0" y1="180" x2="640" y2="180"/><line x1="0" y1="240" x2="640" y2="240"/><line x1="0" y1="300" x2="640" y2="300"/>
    <line x1="80" y1="0" x2="80" y2="360"/><line x1="160" y1="0" x2="160" y2="360"/><line x1="240" y1="0" x2="240" y2="360"/><line x1="320" y1="0" x2="320" y2="360"/><line x1="400" y1="0" x2="400" y2="360"/><line x1="480" y1="0" x2="480" y2="360"/><line x1="560" y1="0" x2="560" y2="360"/>
  </g>
  <!-- Globe icon -->
  <g transform="translate(430, 60)" opacity="0.18">
    <circle cx="100" cy="110" r="88" fill="none" stroke="#046A38" stroke-width="2"/>
    <ellipse cx="100" cy="110" rx="88" ry="30" fill="none" stroke="#046A38" stroke-width="1.5"/>
    <ellipse cx="100" cy="75" rx="70" ry="22" fill="none" stroke="#046A38" stroke-width="1"/>
    <ellipse cx="100" cy="145" rx="70" ry="22" fill="none" stroke="#046A38" stroke-width="1"/>
    <line x1="100" y1="22" x2="100" y2="198" stroke="#046A38" stroke-width="1.5"/>
    <ellipse cx="100" cy="110" rx="44" ry="88" fill="none" stroke="#046A38" stroke-width="1"/>
    <circle cx="62" cy="90" r="5" fill="#FF671F"/>
    <circle cx="138" cy="82" r="5" fill="#FF671F"/>
    <circle cx="100" cy="135" r="6" fill="#046A38"/>
    <line x1="62" y1="90" x2="138" y2="82" stroke="#FF671F" stroke-width="1" stroke-dasharray="4,3"/>
  </g>
  <rect x="48" y="200" width="80" height="3" rx="2" fill="url(#accent)"/>
  <rect x="48" y="60" width="102" height="24" rx="12" fill="#046A38" fill-opacity="0.2"/>
  <rect x="48" y="60" width="102" height="24" rx="12" fill="none" stroke="#046A38" stroke-width="1"/>
  <text x="99" y="76" font-family="system-ui,sans-serif" font-size="10" font-weight="700" fill="#046A38" text-anchor="middle" letter-spacing="1">GEOPOLITICS</text>
  <text x="48" y="130" font-family="system-ui,sans-serif" font-size="28" font-weight="800" fill="#ffffff" letter-spacing="-0.5">Geopolitics 2025:</text>
  <text x="48" y="164" font-family="system-ui,sans-serif" font-size="28" font-weight="800" fill="#ffffff" letter-spacing="-0.5">A World in Fracture</text>
  <text x="48" y="225" font-family="system-ui,sans-serif" font-size="13" fill="#ffffff" fill-opacity="0.5">Mapping the new world order</text>
  <text x="48" y="322" font-family="system-ui,sans-serif" font-size="11" fill="#ffffff" fill-opacity="0.35" letter-spacing="0.5">AMIT KU YADAV · APR 2026</text>
  <rect x="0" y="350" width="640" height="10" fill="url(#accent)" opacity="0.6"/>
</svg>
